<svg xmlns="http://www.w3.org/2000/svg" xmlns:xlink="http://www.w3.org/1999/xlink" width="68" height="68" viewBox="0 0 68 68">
  <defs>
    <filter id="instagram" x="0" y="0" width="68" height="68" filterUnits="userSpaceOnUse">
      <feOffset dx="3" dy="3" input="SourceAlpha"/>
      <feGaussianBlur stdDeviation="3" result="blur"/>
      <feFlood flood-color="#464c61" flood-opacity="0.502"/>
      <feComposite operator="in" in2="blur"/>
      <feComposite in="SourceGraphic"/>
    </filter>
    <filter id="Caminho_21" x="12.948" y="12.448" width="43" height="43" filterUnits="userSpaceOnUse">
      <feOffset dx="3" dy="3" input="SourceAlpha"/>
      <feGaussianBlur stdDeviation="3" result="blur-2"/>
      <feFlood flood-color="#464c61" flood-opacity="0.502"/>
      <feComposite operator="in" in2="blur-2"/>
      <feComposite in="SourceGraphic"/>
    </filter>
  </defs>
  <g id="instagram-2" data-name="instagram" transform="translate(-873 -7)">
    <g transform="matrix(1, 0, 0, 1, 873, 7)" filter="url(#instagram)">
      <g id="instagram-3" data-name="instagram" transform="translate(6 6)" fill="none">
        <path d="M25,0A25,25,0,1,1,0,25,25,25,0,0,1,25,0Z" stroke="none"/>
        <path d="M 25 3 C 22.02869987487793 3 19.14785957336426 3.581260681152344 16.43753051757812 4.727638244628906 C 13.81813812255859 5.835540771484375 11.46506118774414 7.4222412109375 9.443649291992188 9.443649291992188 C 7.4222412109375 11.46506118774414 5.835540771484375 13.81813812255859 4.727638244628906 16.43753051757812 C 3.581260681152344 19.14785957336426 3 22.02869987487793 3 25 C 3 27.97130012512207 3.581260681152344 30.85214042663574 4.727638244628906 33.56246948242188 C 5.835540771484375 36.18186187744141 7.4222412109375 38.53493881225586 9.443649291992188 40.55635070800781 C 11.46506118774414 42.5777587890625 13.81813812255859 44.16445922851562 16.43753051757812 45.27236175537109 C 19.14785957336426 46.41873931884766 22.02869987487793 47 25 47 C 27.97130012512207 47 30.85214042663574 46.41873931884766 33.56246948242188 45.27236175537109 C 36.18186187744141 44.16445922851562 38.53493881225586 42.5777587890625 40.55635070800781 40.55635070800781 C 42.5777587890625 38.53493881225586 44.16445922851562 36.18186187744141 45.27236175537109 33.56246948242188 C 46.41873931884766 30.85214042663574 47 27.97130012512207 47 25 C 47 22.02869987487793 46.41873931884766 19.14785957336426 45.27236175537109 16.43753051757812 C 44.16445922851562 13.81813812255859 42.5777587890625 11.46506118774414 40.55635070800781 9.443649291992188 C 38.53493881225586 7.4222412109375 36.18186187744141 5.835540771484375 33.56246948242188 4.727638244628906 C 30.85214042663574 3.581260681152344 27.97130012512207 3 25 3 M 25 0 C 38.80712127685547 0 50 11.19287872314453 50 25 C 50 38.80712127685547 38.80712127685547 50 25 50 C 11.19287872314453 50 0 38.80712127685547 0 25 C 0 11.19287872314453 11.19287872314453 0 25 0 Z" stroke="none" fill="#ecc601"/>
      </g>
    </g>
    <g transform="matrix(1, 0, 0, 1, 873, 7)" filter="url(#Caminho_21)">
      <path id="Caminho_21-2" data-name="Caminho 21" d="M22.641,17.47a5.172,5.172,0,0,1-5.172,5.172H7.53A5.172,5.172,0,0,1,2.359,17.47V7.53A5.172,5.172,0,0,1,7.53,2.358H17.47A5.172,5.172,0,0,1,22.641,7.53ZM25,7.53A7.53,7.53,0,0,0,17.47,0H7.531A7.53,7.53,0,0,0,0,7.531V17.47A7.531,7.531,0,0,0,7.53,25h9.938A7.531,7.531,0,0,0,25,17.469ZM12.542,16.616A3.955,3.955,0,1,1,16.5,12.661a3.955,3.955,0,0,1-3.955,3.955Zm0-10.128a6.172,6.172,0,1,0,6.172,6.172,6.172,6.172,0,0,0-6.172-6.172ZM19.077,4.6a1.47,1.47,0,1,0,1.47,1.47,1.47,1.47,0,0,0-1.47-1.47Z" transform="translate(18.95 18.45)" fill="#ecc601"/>
    </g>
  </g>
</svg>
